<?xml version="1.0" standalone="no"?>
<!DOCTYPE svg PUBLIC "-//W3C//DTD SVG 20010904//EN"
 "http://www.w3.org/TR/2001/REC-SVG-20010904/DTD/svg10.dtd">
<svg version="1.0" xmlns="http://www.w3.org/2000/svg"
 width="1004.000000pt" height="1004.000000pt" viewBox="0 0 1004.000000 1004.000000"
 preserveAspectRatio="xMidYMid meet">
<metadata>
Created by potrace 1.14, written by Peter Selinger 2001-2017
</metadata>
<g transform="translate(0.000000,1004.000000) scale(0.100000,-0.100000)"
fill="#000000" stroke="none">
<path d="M0 5020 l0 -5020 5020 0 5020 0 0 5020 0 5020 -5020 0 -5020 0 0
-5020z m4160 4605 c0 -33 4 -45 15 -45 17 0 20 16 6 25 -14 8 -9 44 7 50 8 3
21 1 30 -5 15 -8 15 -9 -2 -10 -18 0 -18 -1 -2 -19 11 -12 14 -21 7 -26 -8 -4
-8 -12 -1 -25 9 -16 5 -22 -21 -36 -24 -12 -33 -13 -39 -4 -6 9 -12 9 -26 1
-18 -10 -18 -10 4 -11 16 0 22 -6 22 -24 0 -19 -7 -25 -36 -31 -22 -4 -49 -19
-68 -39 -31 -34 -90 -54 -101 -36 -8 13 -35 13 -35 0 0 -5 8 -10 18 -10 19 0
42 -18 42 -32 0 -5 -10 -12 -21 -16 -20 -8 -20 -9 -4 -25 19 -19 13 -22 -15
-7 -15 8 -23 6 -38 -10 -10 -11 -30 -21 -45 -22 -15 -1 -27 -7 -27 -12 0 -5
-3 -6 -7 -3 -3 4 -12 2 -20 -5 -7 -6 -16 -8 -20 -4 -4 3 -19 -6 -35 -21 -15
-15 -28 -23 -28 -20 0 4 -10 2 -22 -5 -13 -7 -29 -12 -37 -13 -22 0 -25 -23
-4 -28 10 -3 5 -5 -13 -6 -19 -1 -34 -7 -38 -17 -4 -9 -13 -13 -24 -10 -10 4
-27 -3 -42 -17 -14 -13 -32 -21 -39 -19 -8 3 -11 0 -7 -7 5 -7 -1 -11 -14 -11
-13 0 -24 -9 -30 -25 -6 -15 -17 -25 -30 -25 -11 0 -20 -7 -20 -16 0 -9 -5
-12 -12 -8 -7 5 -9 2 -5 -9 4 -11 2 -14 -9 -10 -7 3 -14 9 -14 14 0 5 -4 9
-10 9 -5 0 -7 -6 -5 -13 3 -7 -10 -21 -30 -31 -19 -11 -35 -23 -35 -28 0 -4
-9 -8 -20 -8 -11 0 -20 -6 -20 -14 0 -18 -105 -71 -137 -68 -21 2 -23 -1 -14
-12 10 -12 8 -13 -10 -9 -14 4 -20 2 -16 -4 5 -7 0 -9 -12 -6 -13 3 -23 -2
-31 -16 -6 -12 -15 -19 -21 -16 -10 7 -61 -29 -53 -37 2 -3 -8 -3 -23 -1 -22
4 -25 2 -13 -6 12 -9 11 -11 -8 -11 -13 0 -21 -4 -18 -8 2 -4 -5 -9 -16 -9
-11 -1 -28 -9 -38 -18 -10 -9 -21 -15 -26 -14 -5 1 -18 1 -29 0 -17 -1 -18 -3
-5 -11 13 -8 12 -10 -2 -10 -10 0 -18 -5 -18 -10 0 -6 -6 -10 -12 -8 -23 4
-89 -26 -84 -38 5 -13 -10 -12 -49 1 -17 6 -18 5 -5 -5 12 -10 11 -11 -8 -7
-20 5 -21 3 -10 -10 11 -14 10 -15 -10 -8 -18 5 -27 2 -38 -14 -11 -14 -24
-20 -44 -18 -16 1 -30 -2 -31 -8 -5 -20 -144 -98 -174 -98 -16 1 -24 -1 -17
-4 17 -7 5 -23 -18 -23 -10 0 -32 -12 -49 -26 -17 -14 -35 -22 -41 -19 -6 4
-19 -3 -29 -14 -10 -12 -25 -21 -34 -21 -9 0 -19 -5 -22 -11 -4 -6 -19 -7 -36
-4 -21 5 -31 2 -35 -9 -3 -9 -14 -16 -23 -15 -9 0 -11 3 -5 5 13 6 7 44 -7 44
-8 0 -13 -18 -12 -48 1 -7 -4 -11 -9 -10 -6 2 -11 26 -11 53 0 44 3 50 24 55
29 7 32 33 4 38 -36 7 -41 22 -7 22 22 0 32 5 32 16 0 8 4 13 8 10 5 -3 28 6
52 20 33 19 53 24 77 19 31 -6 33 -4 33 25 0 20 6 33 18 38 47 20 92 56 92 73
0 10 3 19 8 20 55 5 99 19 59 19 -29 0 -18 19 23 40 22 11 40 25 40 32 0 7 14
9 42 5 23 -3 37 -3 31 1 -6 4 -9 19 -6 33 4 21 9 25 25 21 14 -3 26 2 35 14
12 16 11 21 -9 36 -23 18 -23 18 -3 34 11 8 27 19 35 25 12 7 12 10 3 17 -19
12 6 59 37 72 14 5 32 14 40 19 8 6 27 12 42 15 15 4 34 14 43 23 9 9 31 17
48 19 55 4 79 15 66 30 -16 19 41 40 132 49 96 8 110 13 107 33 -2 13 4 16 29
14 18 -2 45 4 60 12 20 11 23 15 11 16 -24 0 -23 13 3 36 16 14 22 16 28 5 7
-11 19 -10 62 6 30 11 71 23 92 27 21 4 40 13 43 20 3 8 24 11 67 10 34 -1 49
0 32 2 -68 10 -77 14 -65 29 7 8 44 16 95 20 72 6 85 10 91 27 3 11 12 17 19
14 22 -8 75 23 75 44 0 10 11 27 25 38 14 11 25 25 25 31 0 6 17 11 40 11 29
0 40 4 40 15 0 12 13 15 58 15 31 0 67 3 80 6 16 5 22 2 22 -9 0 -8 -6 -18
-12 -20 -7 -3 -1 -6 15 -6 30 -1 34 10 12 33 -8 8 -15 24 -15 37 0 20 4 21 50
17 35 -4 50 -1 54 9 3 7 17 13 31 13 23 0 25 -4 25 -45z m1100 5 c14 -14 33
-20 63 -19 l42 1 -30 13 -30 14 32 1 c18 0 36 -6 40 -14 10 -17 53 -40 60 -32
4 3 -1 14 -11 25 -15 16 -15 19 -1 24 8 4 15 1 15 -6 0 -14 47 -37 82 -41 13
-1 29 -6 36 -10 7 -4 19 -5 27 -2 7 2 15 1 17 -3 2 -5 24 -10 50 -13 36 -4 48
-2 53 9 4 12 8 13 20 3 8 -7 12 -16 9 -21 -3 -6 20 -7 59 -3 61 6 64 5 71 -17
6 -22 7 -23 17 -6 8 13 14 15 23 7 10 -7 17 -6 26 5 15 18 46 20 56 4 4 -8 9
-7 15 2 7 12 9 12 9 1 0 -19 63 -77 68 -63 4 12 79 15 106 5 9 -3 13 -11 9
-17 -4 -6 3 -8 21 -3 14 3 26 3 26 -2 0 -10 89 -32 131 -32 22 0 29 -5 29 -20
0 -16 7 -20 35 -20 22 0 35 -5 35 -13 0 -7 10 -17 23 -22 12 -6 26 -20 32 -32
8 -18 18 -23 47 -23 49 0 68 -8 68 -31 0 -20 19 -27 85 -31 39 -3 40 -4 43
-45 3 -37 6 -43 26 -43 12 0 27 5 33 11 8 8 17 7 33 -4 19 -13 20 -15 3 -21
-17 -7 -17 -8 0 -17 13 -8 22 -7 33 2 13 10 17 10 25 -2 13 -20 11 -47 -3 -52
-8 -3 -2 -9 13 -15 15 -6 29 -16 30 -21 2 -6 26 -12 52 -13 27 -1 44 -4 38 -6
-19 -6 -12 -32 9 -32 28 0 25 -22 -6 -49 -20 -17 -39 -23 -88 -24 -41 -1 -69
3 -80 12 -10 9 -16 10 -16 2 0 -24 -38 -10 -50 19 -12 30 -35 44 -24 15 7 -16
-11 -21 -20 -6 -12 19 -181 41 -289 38 -59 -2 -110 0 -113 4 -2 5 -17 8 -32 8
-24 0 -128 15 -191 27 -20 4 -22 7 -10 15 12 7 11 9 -3 9 -10 0 -18 -4 -18
-10 0 -6 -10 -6 -27 1 -14 5 -33 7 -40 5 -8 -3 -12 -2 -9 3 6 9 -16 21 -37 21
-7 0 -6 -4 3 -10 20 -13 4 -13 -21 0 -13 7 -19 7 -19 0 0 -5 -5 -10 -11 -10
-5 0 -8 4 -4 9 8 13 -26 19 -53 9 -13 -4 -21 -4 -18 1 3 5 -13 12 -37 15 -26
4 -43 3 -45 -4 -2 -5 -8 -10 -14 -10 -6 0 -8 6 -5 14 3 7 -3 20 -14 29 -10 9
-19 12 -19 7 0 -14 -82 -2 -92 13 -6 9 -8 9 -8 0 0 -7 8 -17 18 -22 16 -10 16
-10 0 -11 -10 0 -22 9 -28 21 -9 16 -14 18 -26 8 -11 -9 -18 -8 -32 5 -10 9
-24 16 -30 16 -7 0 -20 4 -30 9 -9 5 -42 14 -72 21 -30 7 -60 17 -67 22 -7 5
-18 6 -24 2 -7 -4 -9 -3 -6 3 4 6 -14 10 -45 11 -30 0 -57 7 -67 16 -10 9 -36
16 -59 16 -30 0 -42 4 -42 14 0 22 -11 25 -60 16 -25 -5 -47 -5 -50 -1 -3 5
-22 11 -43 15 -21 4 -41 14 -44 22 -4 11 -14 14 -37 10 -17 -3 -38 -1 -46 4
-13 9 -13 10 0 10 10 1 7 5 -8 13 -12 7 -19 16 -16 20 4 4 -2 7 -14 7 -15 0
-22 6 -22 19 0 21 -43 33 -114 32 -22 -1 -45 4 -53 10 -10 9 -13 8 -13 -1 0
-8 -8 -10 -22 -5 -13 3 -29 7 -36 7 -7 1 -11 7 -8 15 3 7 1 13 -4 13 -6 0 -10
-4 -10 -10 0 -18 -40 -10 -52 10 -7 11 -18 20 -25 20 -20 0 -27 47 -10 65 9 8
19 25 22 36 7 20 12 21 86 14 51 -5 79 -4 79 3 0 13 65 20 213 25 64 2 119 6
121 8 3 2 64 3 135 2 115 -3 134 -6 151 -23z m-906 -81 c-3 -5 -10 -7 -15 -3
-5 3 -7 10 -3 15 3 5 10 7 15 3 5 -3 7 -10 3 -15z m-259 -138 c3 -5 1 -12 -5
-16 -5 -3 -10 1 -10 9 0 18 6 21 15 7z m505 -69 c69 -17 184 -42 255 -56 72
-15 164 -35 205 -46 218 -56 332 -81 345 -77 7 3 15 2 17 -2 5 -13 241 -60
283 -57 33 3 35 2 10 -3 -33 -8 -46 -4 150 -45 39 -9 138 -30 220 -47 83 -18
162 -33 177 -33 14 -1 24 -3 22 -6 -3 -2 21 -10 53 -16 32 -7 108 -24 168 -37
61 -13 187 -41 280 -61 566 -122 575 -125 658 -205 100 -97 115 -273 33 -394
-39 -58 -200 -154 -641 -382 -286 -148 -365 -194 -365 -214 0 -44 44 -83 135
-121 149 -62 252 -112 410 -199 83 -46 155 -88 162 -93 7 -5 18 -6 24 -2 7 4
9 3 6 -4 -4 -5 12 -21 37 -36 24 -14 102 -67 172 -117 429 -307 793 -719 1048
-1186 253 -464 386 -990 386 -1536 l0 -158 80 -87 c98 -107 151 -182 200 -287
117 -248 86 -481 -89 -667 -106 -114 -271 -210 -431 -254 -36 -9 -72 -21 -82
-25 -9 -5 -39 -53 -68 -106 -62 -118 -168 -276 -265 -398 -82 -103 -251 -287
-308 -336 -45 -38 -45 -34 3 -209 84 -302 29 -693 -131 -927 -47 -69 -145
-169 -214 -218 -180 -129 -471 -228 -788 -270 -175 -23 -435 -17 -556 14 -167
42 -318 138 -428 271 l-58 70 -60 -5 c-33 -3 -118 -12 -190 -20 -251 -29 -602
-20 -925 25 -35 5 -65 8 -65 7 -51 -92 -180 -217 -285 -275 -137 -75 -292
-105 -535 -105 -331 1 -585 56 -861 188 -243 115 -373 230 -475 419 -80 148
-126 422 -109 640 10 116 50 296 81 360 10 22 19 47 19 55 0 9 -26 43 -59 76
-145 149 -321 395 -429 600 l-78 148 -84 32 c-228 85 -358 174 -456 311 -172
241 -163 492 26 749 40 54 214 225 228 225 5 0 12 105 15 233 5 233 29 431 72
587 8 30 13 55 11 57 -1 2 -29 -2 -61 -8 -100 -18 -256 -26 -341 -18 -98 10
-174 41 -234 95 -121 110 -128 178 -66 634 51 371 67 490 81 629 8 79 17 146
19 148 2 2 0 21 -5 41 -39 161 -49 228 -50 305 0 109 18 168 77 244 28 36 42
63 38 73 -4 8 -9 61 -12 117 -7 158 29 255 143 381 66 74 141 122 329 212 299
144 789 391 1111 560 61 32 157 83 215 113 58 30 134 70 170 89 36 19 128 68
205 108 77 40 145 76 150 80 6 4 53 30 105 57 271 143 326 173 460 246 189
103 315 164 365 176 65 16 210 5 345 -27z m2440 -272 c0 -5 -7 -7 -15 -4 -8 4
-15 8 -15 10 0 2 7 4 15 4 8 0 15 -4 15 -10z m-563 -86 c-3 -3 -12 -4 -19 -1
-8 3 -5 6 6 6 11 1 17 -2 13 -5z m390 -80 c-3 -3 -12 -4 -19 -1 -8 3 -5 6 6 6
11 1 17 -2 13 -5z m-4950 -536 c-3 -8 -6 -5 -6 6 -1 11 2 17 5 13 3 -3 4 -12
1 -19z m6083 -308 c0 -22 5 -40 10 -40 6 0 10 5 10 10 0 20 29 9 32 -12 3 -20
10 -23 52 -26 28 -2 52 1 56 8 4 6 14 8 23 4 13 -5 14 -10 6 -25 -8 -16 -6
-19 11 -19 17 0 20 -4 15 -20 -7 -24 14 -58 25 -40 4 7 23 6 61 -4 30 -8 46
-15 37 -15 -29 -1 -20 -16 17 -30 32 -11 48 -31 25 -31 -5 0 -10 -4 -10 -10 0
-5 16 -10 35 -10 34 0 35 -1 35 -40 0 -34 -3 -40 -22 -41 l-23 -2 23 -4 c17
-3 22 -11 22 -33 0 -22 -5 -30 -22 -33 -13 -2 -4 -5 20 -6 40 -1 42 0 42 29 0
33 7 37 35 16 16 -12 17 -16 6 -30 -12 -14 -10 -16 13 -16 19 0 33 -10 54 -40
15 -21 33 -39 40 -40 18 0 17 -160 -2 -160 -7 0 -20 -7 -27 -16 -11 -14 -10
-18 6 -30 11 -7 25 -18 32 -24 7 -5 18 -10 25 -10 8 0 22 -10 33 -22 l20 -23
3 23 c3 18 10 22 43 22 35 0 39 -3 39 -24 0 -13 3 -31 6 -40 5 -13 -1 -16 -32
-16 -38 -1 -38 -1 -15 -14 l24 -13 -23 -13 c-22 -12 -22 -13 -4 -23 10 -5 20
-11 22 -13 2 -1 -1 -12 -8 -23 -6 -12 -9 -21 -6 -21 2 0 11 -3 20 -6 12 -5 16
1 17 22 1 24 3 22 9 -11 4 -22 4 -41 0 -43 -11 -4 43 -102 58 -102 6 0 12 -11
12 -24 0 -13 -6 -27 -12 -30 -7 -3 -4 -4 6 -3 15 1 24 -9 35 -38 9 -22 34 -60
58 -84 33 -36 40 -48 32 -63 -6 -12 -6 -25 1 -38 12 -22 40 -27 40 -7 0 8 3 7
10 -3 6 -9 5 -17 -3 -22 -9 -5 -9 -10 1 -20 6 -6 12 -22 12 -34 0 -27 25 -51
35 -33 4 6 1 15 -6 20 -10 6 -8 9 9 9 21 0 22 -4 22 -79 0 -70 3 -83 23 -105
21 -22 23 -33 19 -83 -4 -50 -10 -62 -38 -88 -22 -21 -30 -35 -25 -44 5 -7 6
-22 4 -32 -3 -11 0 -19 7 -19 8 0 10 -8 7 -21 -4 -16 1 -23 26 -34 l32 -13
-27 -7 c-46 -12 -34 -34 22 -41 l50 -7 0 -38 c0 -22 5 -39 10 -39 6 0 10 -19
11 -42 1 -54 14 -99 22 -78 3 8 8 22 11 30 3 8 5 -32 3 -90 -2 -58 -2 -113 1
-122 7 -33 22 -18 22 22 0 22 5 40 10 40 7 0 10 -51 10 -142 -1 -79 2 -151 5
-160 5 -13 2 -18 -9 -18 -12 0 -16 -10 -16 -40 0 -38 2 -40 30 -40 l30 0 0
-94 c0 -53 4 -98 10 -101 15 -9 12 -45 -4 -45 -8 0 -19 -13 -25 -30 -5 -16
-15 -30 -20 -30 -6 0 -11 -5 -11 -11 0 -7 10 -9 25 -7 24 5 25 3 25 -38 0 -24
5 -44 10 -44 15 0 12 -87 -2 -93 -10 -3 -10 -9 -2 -23 9 -15 8 -22 -2 -32 -24
-22 -34 -13 -36 31 l-1 42 -4 -42 c-3 -35 -8 -43 -24 -43 -16 0 -19 -7 -19
-40 0 -22 -4 -40 -9 -40 -6 0 -6 -13 -1 -32 10 -38 22 -219 14 -200 -8 18 -64
72 -75 72 -5 0 -9 18 -9 40 0 33 4 40 19 40 12 0 20 9 24 28 6 32 -3 125 -13
132 -4 3 -12 19 -18 35 l-10 30 -2 -35 c-2 -32 -3 -33 -9 -10 -4 14 -14 24
-21 22 -13 -3 -30 14 -30 31 0 4 7 7 15 7 14 0 14 4 0 38 -9 20 -20 39 -25 40
-17 6 -11 22 18 48 18 17 23 27 15 31 -7 2 -13 13 -13 24 0 10 -6 19 -14 19
-13 0 -26 41 -26 86 0 27 -19 42 -30 24 -12 -19 -40 12 -40 44 0 16 -6 26 -15
26 -8 0 -15 8 -15 17 0 32 -24 82 -42 86 -11 3 -18 14 -18 30 0 17 -7 28 -20
32 -15 5 -20 15 -20 41 0 24 -5 34 -15 34 -8 0 -15 7 -15 15 0 9 -9 44 -21 78
-12 34 -21 77 -21 95 0 17 -5 33 -11 34 -7 0 -19 1 -27 2 -8 1 -16 9 -18 20
-3 11 0 16 7 12 6 -4 11 -2 11 3 0 6 -4 11 -10 11 -5 0 -20 16 -32 35 -13 19
-29 35 -36 35 -7 0 -11 4 -7 9 3 5 0 13 -6 17 -6 3 -20 26 -31 50 -10 24 -23
44 -28 44 -5 0 -10 12 -12 28 -2 15 -9 27 -16 27 -17 0 -43 35 -36 47 3 5 0 7
-6 6 -7 -2 -17 6 -23 17 -36 63 -59 95 -65 91 -5 -3 -16 11 -27 30 -10 19 -24
34 -32 34 -7 0 -13 4 -13 8 0 11 -29 49 -72 92 -21 21 -38 43 -38 49 0 6 -5
11 -10 11 -6 0 -15 11 -20 25 -9 23 -21 30 -44 26 -5 -1 -6 5 -3 13 4 10 1 13
-9 9 -8 -3 -14 1 -14 9 0 14 -40 54 -51 51 -4 -1 -10 13 -13 31 -5 25 -15 38
-43 52 -27 14 -37 16 -40 6 -3 -6 -9 -9 -14 -6 -6 3 -2 12 8 20 17 13 17 14 0
8 -10 -4 -17 -2 -15 3 3 8 -46 63 -56 63 -3 0 -2 -8 1 -17 6 -15 5 -16 -9 -3
-12 12 -13 18 -5 29 10 11 8 13 -12 6 -20 -6 -22 -4 -16 14 6 21 -5 27 -42 22
-18 -2 -16 9 3 23 13 10 13 12 -5 12 -11 0 -17 -4 -14 -9 3 -5 0 -8 -8 -5 -8
3 -14 9 -14 14 -1 14 -18 37 -40 54 -19 15 -19 15 -1 -15 l18 -30 -30 30 c-29
29 -33 51 -8 42 7 -3 13 1 13 9 0 12 -4 12 -23 -1 -26 -17 -48 -20 -39 -5 3 6
1 10 -6 10 -8 0 -5 9 7 23 10 12 12 17 5 10 -15 -13 -65 3 -56 18 3 4 -4 10
-15 14 -11 4 -17 11 -14 17 5 8 1 9 -11 5 -22 -9 -46 10 -38 30 5 13 2 15 -15
11 -23 -6 -47 14 -47 40 0 8 -10 18 -23 23 -15 6 -21 5 -17 -1 9 -15 0 -12
-23 9 -12 10 -18 22 -14 26 4 5 2 5 -5 1 -6 -3 -21 3 -31 15 -11 11 -28 22
-38 23 -11 2 -18 11 -18 20 1 8 -2 13 -7 10 -5 -2 -21 2 -36 10 -34 17 -109
76 -98 76 5 0 18 -8 29 -17 21 -18 21 -18 2 5 -11 12 -24 22 -31 22 -6 0 -21
11 -32 24 -14 16 -30 23 -46 22 -14 -2 -24 2 -24 10 0 9 5 10 18 3 10 -5 20
-5 23 -1 5 8 -8 12 -46 13 -10 0 -18 5 -18 10 0 6 -4 7 -10 4 -6 -4 -7 1 -3
12 3 10 2 14 -2 10 -5 -4 -15 3 -22 15 -11 19 -13 20 -11 4 2 -10 -2 -21 -8
-23 -7 -2 -10 6 -9 22 2 14 -1 25 -6 25 -6 0 -7 5 -4 10 3 6 2 10 -3 10 -6 0
-13 -7 -16 -16 -4 -10 -2 -13 7 -8 8 5 7 2 -2 -9 -11 -13 -11 -17 -1 -17 8 0
11 -3 7 -6 -3 -3 -14 -1 -24 5 -10 6 -13 11 -6 11 7 0 10 7 7 15 -4 8 -10 12
-15 9 -5 -3 -6 2 -3 10 3 9 2 16 -2 16 -5 0 -20 9 -34 20 -14 11 -20 20 -15
19 28 -4 36 3 34 29 -3 43 11 72 34 72 16 0 18 3 9 12 -16 16 -15 31 1 25 7
-2 25 8 40 23 15 15 45 32 66 38 21 7 44 19 51 27 7 8 27 15 44 15 18 0 36 4
42 10 5 5 31 10 57 11 32 2 47 7 47 16 0 7 11 13 25 13 24 0 33 5 69 37 7 6
24 13 37 15 16 2 25 11 27 24 2 16 12 23 33 26 29 4 41 -6 17 -15 -7 -2 -10
-8 -6 -12 9 -10 49 5 42 16 -3 5 8 12 25 15 21 4 31 12 31 25 0 10 10 21 23
25 49 15 137 58 137 67 0 5 6 4 13 -2 19 -15 27 -4 27 36 0 31 3 33 40 39 34
6 40 10 40 30 0 17 6 24 20 24 17 0 20 -7 20 -40z m1030 -1259 c0 -6 -4 -13
-10 -16 -5 -3 -10 1 -10 9 0 9 5 16 10 16 6 0 10 -4 10 -9z m90 -161 c0 -5 -7
-10 -15 -10 -8 0 -15 5 -15 10 0 6 7 10 15 10 8 0 15 -4 15 -10z m-1044 -90
c0 -12 -4 -16 -9 -11 -5 5 -6 14 -3 20 10 15 12 14 12 -9z m-7296 -51 c0 -6 7
-9 15 -5 11 4 15 -2 15 -27 0 -21 -3 -28 -9 -19 -5 8 -6 -8 -3 -37 4 -46 3
-51 -16 -51 -17 0 -21 -8 -24 -47 -3 -31 0 -53 8 -62 20 -22 27 -7 27 51 -1
29 1 45 4 35 2 -9 9 -14 15 -10 8 4 9 0 4 -13 -11 -26 -13 -83 -4 -78 13 8 9
-24 -4 -46 -10 -16 -10 -24 0 -40 9 -14 9 -26 3 -39 -13 -24 -10 -63 6 -80 11
-10 11 -16 2 -27 -6 -8 -12 -40 -12 -73 -1 -43 -5 -57 -14 -54 -9 4 -13 -7
-13 -35 0 -23 5 -43 13 -45 6 -3 2 -6 -10 -6 -27 -1 -39 -19 -24 -34 16 -16
14 -54 -4 -61 -17 -6 -21 -36 -5 -36 6 0 10 -9 10 -20 0 -11 -4 -20 -10 -20
-6 0 -10 -31 -11 -72 -1 -74 -2 -76 -14 -23 -6 27 -7 28 -17 11 -13 -24 -27
-147 -16 -140 11 7 10 -8 -2 -26 -9 -13 -10 -13 -10 0 0 8 -9 0 -20 -17 -11
-18 -26 -33 -33 -33 -9 0 -11 -12 -9 -40 3 -25 0 -40 -7 -40 -17 0 -13 -17 6
-24 9 -4 20 -2 23 5 6 8 9 8 14 0 4 -6 4 -16 1 -21 -4 -6 -1 -18 6 -26 10 -12
10 -20 1 -34 -9 -14 -7 -21 8 -35 10 -9 17 -22 14 -28 -2 -7 5 -27 16 -45 16
-27 25 -32 43 -27 17 5 19 4 7 -5 -13 -9 -12 -12 4 -25 11 -8 26 -15 33 -15
24 0 74 -30 68 -41 -4 -5 9 -16 28 -24 19 -8 37 -21 40 -28 7 -19 94 -60 111
-54 7 3 18 1 23 -4 8 -8 97 -23 198 -33 52 -6 101 -31 108 -56 3 -12 14 -20
27 -20 15 0 20 -5 17 -14 -3 -8 -2 -16 3 -18 43 -15 29 -478 -15 -478 -8 0
-17 -5 -21 -12 -5 -7 -3 -8 7 -3 12 8 12 6 0 -8 -8 -10 -16 -15 -18 -13 -3 3
-18 -9 -34 -25 -16 -17 -34 -27 -39 -24 -6 3 -10 2 -10 -4 0 -15 -51 -66 -62
-63 -5 1 -7 -2 -3 -8 3 -5 1 -10 -5 -10 -6 0 -9 -4 -5 -9 3 -5 -4 -12 -15 -16
-11 -3 -20 -13 -20 -21 0 -8 -4 -14 -10 -14 -5 0 -12 -11 -16 -24 -3 -14 -24
-36 -45 -51 -30 -19 -39 -31 -34 -44 3 -11 0 -25 -8 -33 -7 -7 -12 -19 -9 -27
3 -10 0 -12 -12 -8 -9 4 -16 1 -16 -6 -1 -7 -6 -5 -14 6 -18 23 -22 22 -36
-13 -11 -26 -18 -30 -51 -30 -24 0 -39 5 -39 13 -1 7 -6 5 -14 -5 -17 -24 -32
-23 -39 2 -3 11 -12 20 -20 20 -9 0 -19 9 -22 21 -6 18 -8 19 -18 4 -11 -14
-14 -14 -28 4 -16 18 -15 19 8 30 29 13 23 27 -20 45 -18 8 -27 15 -20 15 7 1
5 14 -8 41 -10 22 -28 58 -38 80 -11 22 -15 40 -10 40 16 0 10 25 -11 43 -13
11 -20 29 -20 52 0 19 -4 35 -10 35 -5 0 -10 -4 -10 -10 0 -5 -5 -10 -12 -10
-8 0 -9 27 -5 98 6 89 3 124 -18 175 -5 12 -2 17 9 17 20 0 21 14 2 29 -11 9
-15 9 -19 -1 -2 -7 -7 10 -11 37 -7 45 -25 96 -26 70 0 -5 -5 -3 -10 5 -5 8
-10 34 -10 58 0 35 -3 42 -20 42 -11 0 -20 -6 -20 -12 0 -9 -3 -8 -10 2 -6 10
-4 20 7 32 15 17 15 20 -2 38 -18 19 -17 20 3 20 16 0 22 6 22 21 0 18 -3 19
-15 9 -12 -10 -15 -7 -21 14 -7 29 1 46 22 46 20 0 18 26 -3 35 -17 6 -17 7 0
16 12 7 17 23 17 54 0 25 5 45 10 45 6 0 10 15 10 34 0 31 3 34 36 41 l36 6
-7 77 c-4 42 -12 80 -18 83 -5 4 -7 14 -4 24 4 9 11 14 16 10 9 -5 31 24 31
39 0 3 -13 6 -30 6 -28 0 -30 2 -30 40 0 25 5 40 13 40 7 0 18 9 25 21 11 17
11 23 0 36 -10 12 -10 17 -1 20 17 6 4 33 -22 43 -20 8 -22 15 -23 117 -1 59
-5 138 -8 176 -5 47 -3 67 5 67 6 0 11 13 11 30 0 16 5 52 11 80 l11 50 44 0
c34 0 42 3 38 15 -4 8 -12 15 -20 15 -21 0 -17 21 6 27 11 3 20 14 20 24 0 11
5 19 10 19 6 0 10 -6 10 -12 0 -7 7 -2 16 10 8 12 22 22 30 22 11 0 14 16 14
74 0 41 -4 78 -10 81 -13 8 -13 65 0 65 6 0 5 8 -2 20 -11 17 -10 22 2 30 10
6 11 10 3 10 -8 0 -13 14 -13 35 0 28 5 38 23 44 24 9 57 -3 57 -20z m50 -99
c0 -11 -2 -20 -4 -20 -2 0 -6 9 -9 20 -3 11 -1 20 4 20 5 0 9 -9 9 -20z m-128
-160 c-2 -22 -6 -40 -8 -40 -2 0 -4 18 -4 40 0 22 3 40 8 40 4 0 6 -18 4 -40z
m137 -2 c-1 -40 -1 -41 -9 -15 -8 26 -4 57 6 57 2 0 4 -19 3 -42z m7791 -288
c0 -5 -2 -10 -4 -10 -3 0 -8 5 -11 10 -3 6 -1 10 4 10 6 0 11 -4 11 -10z
m-8135 -460 c3 -5 1 -10 -4 -10 -6 0 -11 5 -11 10 0 6 2 10 4 10 3 0 8 -4 11
-10z m8872 -152 c-3 -7 -5 -2 -5 12 0 14 2 19 5 13 2 -7 2 -19 0 -25z m-8720
-70 c-3 -7 -5 -2 -5 12 0 14 2 19 5 13 2 -7 2 -19 0 -25z m8733 -228 c0 -5 -4
-10 -10 -10 -5 0 -10 5 -10 10 0 6 5 10 10 10 6 0 10 -4 10 -10z m-8823 -712
c-3 -7 -5 -2 -5 12 0 14 2 19 5 13 2 -7 2 -19 0 -25z m367 -623 c-4 -8 -10
-12 -15 -9 -14 8 -10 24 6 24 9 0 12 -6 9 -15z m-81 -13 c9 -5 -21 -42 -35
-42 -4 0 -8 13 -8 30 0 29 9 31 43 12z m-6 -288 c-3 -3 -12 -4 -19 -1 -8 3 -5
6 6 6 11 1 17 -2 13 -5z m43 -119 c0 -8 -9 -15 -20 -15 -11 0 -20 7 -20 15 0
8 9 15 20 15 11 0 20 -7 20 -15z m393 -602 c-7 -2 -14 -23 -15 -46 -1 -39 -2
-39 -5 -9 -5 41 2 62 19 61 10 0 10 -2 1 -6z m91 -68 c3 -8 1 -15 -5 -15 -6 0
-17 7 -25 15 -14 13 -13 15 4 15 11 0 22 -7 26 -15z m76 -75 c0 -17 7 -20 40
-20 33 0 40 -3 40 -20 0 -17 7 -20 45 -20 50 0 109 -25 99 -41 -3 -5 -13 -7
-23 -4 -13 4 -20 -4 -30 -30 -11 -32 -16 -35 -51 -35 -29 0 -39 4 -42 18 -3
14 -5 13 -10 -5 -5 -20 -2 -23 23 -23 27 0 29 -3 29 -40 0 -42 -9 -50 -29 -26
-8 10 -9 16 -1 21 13 8 13 35 0 35 -5 0 -10 -9 -10 -20 0 -17 -7 -20 -40 -20
-36 0 -40 3 -40 25 0 14 4 25 10 25 6 0 6 9 0 26 -14 35 -15 34 30 34 22 0 40
5 40 10 0 6 -33 10 -80 10 -47 0 -80 4 -80 10 0 6 18 10 40 10 38 0 40 2 40
30 0 23 -4 30 -20 30 -13 0 -20 7 -20 20 0 13 7 20 20 20 13 0 20 -7 20 -20z
m-80 -5 c0 -8 -4 -15 -10 -15 -5 0 -10 7 -10 15 0 8 5 15 10 15 6 0 10 -7 10
-15z m53 -127 c28 -14 36 -28 14 -28 -18 0 -67 24 -67 33 0 11 23 9 53 -5z
m207 -62 c0 -7 -7 -19 -15 -26 -12 -10 -16 -9 -21 5 -4 10 -1 21 7 26 20 12
29 11 29 -5z m-20 -73 c-1 -24 -2 -26 -11 -10 -5 9 -7 22 -4 27 10 17 15 11
15 -17z m180 -63 c0 -5 -4 -10 -10 -10 -5 0 -10 5 -10 10 0 6 5 10 10 10 6 0
10 -4 10 -10z m-37 -54 c15 -32 15 -34 -4 -39 -12 -3 -19 0 -19 8 0 7 -5 15
-11 17 -13 4 -3 48 10 48 4 0 15 -15 24 -34z m-83 4 c0 -11 5 -20 10 -20 6 0
10 -4 10 -10 0 -5 -7 -10 -15 -10 -8 0 -15 6 -15 14 0 8 -3 21 -6 30 -3 9 -1
16 5 16 6 0 11 -9 11 -20z m60 -120 c0 -5 -10 -10 -22 -9 -22 0 -22 1 -3 9 11
5 21 9 23 9 1 1 2 -3 2 -9z m40 -25 c0 -8 -7 -15 -15 -15 -8 0 -15 7 -15 15 0
8 7 15 15 15 8 0 15 -7 15 -15z"/>
<path d="M3911 9424 c0 -11 3 -14 6 -6 3 7 2 16 -1 19 -3 4 -6 -2 -5 -13z"/>
<path d="M3360 9280 c0 -13 7 -20 20 -20 13 0 20 7 20 20 0 13 -7 20 -20 20
-13 0 -20 -7 -20 -20z"/>
<path d="M3280 9274 c0 -9 5 -14 12 -12 18 6 21 28 4 28 -9 0 -16 -7 -16 -16z"/>
<path d="M3420 9280 c0 -5 5 -10 10 -10 6 0 10 5 10 10 0 6 -4 10 -10 10 -5 0
-10 -4 -10 -10z"/>
<path d="M3098 9163 c7 -3 16 -2 19 1 4 3 -2 6 -13 5 -11 0 -14 -3 -6 -6z"/>
<path d="M2983 9153 c15 -2 39 -2 55 0 15 2 2 4 -28 4 -30 0 -43 -2 -27 -4z"/>
<path d="M2978 9103 c12 -2 32 -2 45 0 12 2 2 4 -23 4 -25 0 -35 -2 -22 -4z"/>
<path d="M2720 8989 c0 -5 5 -7 10 -4 6 3 10 8 10 11 0 2 -4 4 -10 4 -5 0 -10
-5 -10 -11z"/>
<path d="M2400 8725 c0 -9 6 -12 15 -9 8 4 15 10 15 15 0 5 -7 9 -15 9 -8 0
-15 -7 -15 -15z"/>
<path d="M4880 9631 c0 -5 -18 -7 -40 -4 -35 5 -40 3 -40 -15 0 -12 9 -22 23
-26 18 -5 20 -8 7 -16 -11 -7 -4 -10 28 -10 27 0 41 4 37 10 -4 6 11 18 31 26
l38 16 -33 14 c-39 16 -51 17 -51 5z"/>
<path d="M4960 9590 c0 -5 5 -10 11 -10 5 0 7 5 4 10 -3 6 -8 10 -11 10 -2 0
-4 -4 -4 -10z"/>
<path d="M6098 9473 c7 -3 16 -2 19 1 4 3 -2 6 -13 5 -11 0 -14 -3 -6 -6z"/>
<path d="M4190 9060 c-79 -40 -174 -89 -210 -109 -36 -21 -150 -82 -255 -136
-104 -54 -275 -143 -380 -198 -512 -270 -1249 -647 -1612 -823 -138 -68 -271
-135 -295 -150 -75 -48 -118 -95 -125 -136 -3 -21 -9 -38 -14 -38 -12 0 -11
-132 2 -268 6 -62 9 -115 7 -118 -3 -2 -12 -2 -20 1 -11 4 -17 42 -26 161 -6
86 -8 163 -5 171 5 12 3 14 -7 8 -13 -8 -11 -98 6 -275 l6 -65 -34 -18 c-52
-27 -71 -69 -76 -162 -3 -62 1 -99 17 -160 15 -54 19 -81 11 -89 -17 -17 -12
-54 11 -77 20 -20 20 -23 5 -87 -8 -37 -22 -134 -31 -217 -16 -151 -47 -408
-90 -740 -25 -195 -23 -215 26 -230 18 -6 28 -1 48 24 34 40 53 39 74 -4 20
-43 42 -53 66 -31 22 20 45 20 75 1 32 -21 53 -10 67 33 10 35 33 62 50 62 5
0 17 -20 28 -45 11 -25 24 -45 28 -45 5 0 22 22 38 50 17 27 32 50 35 50 3 0
15 -16 28 -35 12 -19 27 -35 32 -35 18 0 11 115 -15 241 -14 68 -50 273 -80
454 -64 382 -69 409 -102 493 l-25 62 26 31 c29 34 30 38 16 59 -8 12 -10 11
-10 -6 0 -15 -10 -24 -41 -34 -31 -11 -37 -16 -25 -22 9 -5 16 -13 16 -18 0
-25 -199 -18 -208 8 -2 7 6 12 22 12 14 0 26 5 26 10 0 6 -9 10 -20 10 -11 0
-20 4 -20 9 0 15 85 24 149 18 50 -6 59 -4 75 14 11 14 14 25 8 31 -6 6 -4 28
5 60 10 32 14 79 11 133 -4 100 -20 127 -97 165 l-52 26 -5 94 c-3 52 -2 126
2 163 l6 69 42 -6 c35 -6 46 -3 61 14 25 28 69 26 261 -9 88 -16 254 -46 369
-65 116 -20 314 -55 440 -77 127 -22 299 -50 383 -62 l152 -22 0 -35 c0 -19
-7 -78 -15 -130 -8 -52 -15 -118 -15 -146 l0 -52 -94 -70 c-371 -279 -770
-783 -957 -1210 -176 -403 -260 -840 -246 -1284 l6 -176 -62 -43 c-34 -24
-103 -85 -154 -136 -74 -75 -100 -109 -135 -180 -40 -81 -43 -92 -43 -168 0
-75 3 -86 35 -139 85 -142 278 -257 497 -298 l67 -13 20 -50 c40 -96 155 -324
204 -403 87 -140 213 -293 365 -443 l147 -146 -57 -60 c-115 -117 -155 -236
-156 -463 -1 -127 2 -157 25 -240 42 -152 91 -245 185 -350 61 -69 242 -167
413 -224 220 -73 423 -102 664 -93 165 6 244 23 338 74 74 40 168 139 219 233
24 45 49 87 54 95 9 13 25 12 130 -9 227 -46 293 -51 640 -51 307 1 343 3 512
28 100 15 189 30 197 33 10 4 22 -11 41 -47 39 -78 108 -171 162 -219 64 -57
174 -108 259 -122 103 -16 406 -4 535 21 240 45 440 113 549 184 227 149 351
459 319 796 -15 163 -54 264 -136 351 -18 19 -33 37 -33 40 0 3 48 46 106 95
115 97 300 292 395 417 94 123 189 275 259 415 l65 130 60 7 c129 16 337 108
433 192 55 48 116 155 126 220 21 142 -94 346 -286 505 -42 35 -78 69 -81 74
-2 6 -1 35 4 65 4 30 8 130 8 221 2 377 -57 698 -194 1059 -109 286 -222 485
-443 778 -68 90 -268 306 -370 399 -117 107 -208 181 -322 258 -47 32 -107 74
-134 93 -151 106 -445 257 -656 337 -141 53 -140 52 -155 88 -7 18 -54 104
-104 191 -50 87 -91 164 -91 171 0 7 17 22 38 32 20 11 116 62 212 115 204
110 335 180 550 291 185 95 309 164 333 185 32 28 13 93 -32 111 -33 13 -273
69 -546 126 -215 45 -545 116 -625 134 -72 17 -363 80 -510 111 -74 16 -214
47 -310 70 -96 22 -258 59 -359 81 -101 22 -209 46 -240 54 -59 15 -222 50
-281 60 -30 5 -57 -5 -180 -65z m456 -50 c146 -32 370 -89 354 -89 -14 -1
-431 94 -455 104 -26 10 20 3 101 -15z m401 -96 c-3 -3 -12 -4 -19 -1 -8 3 -5
6 6 6 11 1 17 -2 13 -5z m123 -23 c41 -11 64 -19 50 -20 -14 0 -56 8 -95 19
-90 24 -54 25 45 1z m527 -117 c-3 -3 -12 -4 -19 -1 -8 3 -5 6 6 6 11 1 17 -2
13 -5z m183 -36 c36 -7 56 -14 45 -15 -11 -2 -54 6 -95 17 -78 20 -62 20 50
-2z m143 -35 c-7 -2 -21 -2 -30 0 -10 3 -4 5 12 5 17 0 24 -2 18 -5z m92 -18
c29 -8 39 -14 25 -14 -28 1 -114 27 -90 28 8 0 38 -6 65 -14z m172 -41 c-3 -3
-12 -4 -19 -1 -8 3 -5 6 6 6 11 1 17 -2 13 -5z m46 -11 c-7 -2 -19 -2 -25 0
-7 3 -2 5 12 5 14 0 19 -2 13 -5z m82 -13 l20 -9 -20 1 c-11 0 -31 4 -45 8
l-25 8 25 0 c14 0 34 -3 45 -8z m52 -16 c-3 -3 -12 -4 -19 -1 -8 3 -5 6 6 6
11 1 17 -2 13 -5z m78 -14 c25 -11 -1 -11 -35 0 -20 6 -21 8 -5 8 11 0 29 -3
40 -8z m68 -17 c-7 -2 -21 -2 -30 0 -10 3 -4 5 12 5 17 0 24 -2 18 -5z m50
-10 c-7 -2 -19 -2 -25 0 -7 3 -2 5 12 5 14 0 19 -2 13 -5z m50 -10 c-7 -2 -19
-2 -25 0 -7 3 -2 5 12 5 14 0 19 -2 13 -5z m50 -10 c-7 -2 -19 -2 -25 0 -7 3
-2 5 12 5 14 0 19 -2 13 -5z m44 -9 c-3 -3 -12 -4 -19 -1 -8 3 -5 6 6 6 11 1
17 -2 13 -5z m50 -10 c-3 -3 -12 -4 -19 -1 -8 3 -5 6 6 6 11 1 17 -2 13 -5z
m80 -20 c-3 -3 -12 -4 -19 -1 -8 3 -5 6 6 6 11 1 17 -2 13 -5z m73 -14 c11 -8
7 -9 -15 -4 -37 8 -45 14 -19 14 10 0 26 -5 34 -10z m57 -16 c-3 -3 -12 -4
-19 -1 -8 3 -5 6 6 6 11 1 17 -2 13 -5z m-3937 -613 c0 -5 -8 -12 -17 -15
-107 -32 -727 -161 -1133 -237 -118 -22 -259 -49 -314 -60 -97 -21 -255 -24
-273 -5 -4 4 3 16 17 26 30 23 47 26 30 5 -7 -9 -10 -18 -7 -21 13 -13 515 72
957 161 96 20 257 51 358 71 101 19 223 46 270 59 101 27 112 28 112 16z
m2820 -319 c30 -9 57 -17 60 -17 22 -6 40 -19 40 -29 0 -6 21 -22 48 -35 26
-12 54 -26 62 -31 8 -4 26 -3 40 2 21 8 29 5 48 -18 13 -14 21 -28 19 -30 -2
-2 -21 2 -43 9 -64 19 -426 15 -559 -6 -192 -32 -344 -73 -500 -137 -38 -16
-95 -36 -125 -45 -66 -20 -220 -102 -220 -117 0 -8 -44 -8 -147 -2 -176 11
-554 12 -708 2 -109 -7 -109 -7 -45 6 35 7 66 18 68 24 2 6 10 8 18 5 8 -3 14
0 14 6 0 6 6 11 13 11 7 0 18 9 25 20 7 12 17 18 21 15 15 -8 18 17 7 42 -12
24 -59 40 -79 26 -7 -5 -34 -10 -62 -11 -58 -3 -232 -28 -290 -42 -65 -15 -65
-10 0 11 84 27 250 64 380 86 127 21 483 24 620 5 l80 -11 100 54 c175 93 403
173 585 206 158 28 436 28 530 1z m300 -236 c88 -21 414 -152 550 -220 455
-230 937 -646 1212 -1046 200 -293 335 -585 418 -905 82 -315 105 -515 97
-840 -6 -201 -11 -270 -37 -425 -44 -264 -120 -536 -183 -654 -48 -89 -45 -46
6 101 77 222 113 389 142 673 16 155 19 425 5 550 -25 232 -33 289 -56 388
-14 59 -30 126 -35 150 -5 24 -15 58 -23 75 -8 18 -17 43 -21 57 -3 14 -10 34
-15 45 -5 11 -16 45 -26 75 -9 30 -25 73 -35 95 -9 22 -26 60 -37 85 -11 25
-27 54 -36 65 -17 20 -17 20 -6 -2 6 -13 9 -23 8 -24 -2 0 -12 -2 -23 -3 -11
-2 -32 -7 -47 -11 -18 -5 -28 -3 -28 4 0 6 5 11 11 11 8 0 8 5 -1 15 -14 17
-35 21 -25 5 3 -5 -1 -10 -9 -10 -9 0 -15 6 -14 12 2 8 -12 13 -39 15 -24 2
-43 -1 -43 -6 0 -5 -10 -12 -22 -14 -13 -2 3 -5 34 -6 31 0 60 -6 64 -12 5 -8
-6 -9 -35 -4 -27 4 -47 3 -56 -5 -8 -6 -18 -9 -23 -6 -5 3 -37 1 -71 -4 -43
-6 -68 -15 -80 -29 -24 -27 -31 -26 -31 4 0 16 -6 25 -16 25 -12 0 -15 -7 -12
-25 5 -22 2 -24 -31 -22 -20 1 -53 -2 -73 -6 -32 -7 -37 -5 -32 8 5 12 -2 15
-35 13 -23 -1 -41 -4 -41 -7 0 -12 -55 -32 -58 -21 -2 5 -17 10 -33 10 -27 0
-29 -2 -19 -20 6 -11 20 -20 30 -20 26 0 25 -5 -2 -35 -22 -24 -24 -24 -66
-10 -24 9 -53 17 -65 19 -12 3 -22 5 -22 6 0 1 -27 3 -60 6 -86 6 -151 18
-147 28 11 28 -134 41 -298 27 -109 -9 -230 -38 -170 -41 23 -1 23 -2 7 -11
-11 -6 -29 -9 -41 -7 -14 3 -23 0 -23 -8 0 -7 7 -10 16 -7 9 2 5 -2 -8 -10
-14 -8 -30 -13 -37 -10 -6 2 -24 -7 -39 -21 -15 -14 -32 -26 -37 -26 -5 0 4
12 19 26 l28 26 -33 -19 c-19 -10 -68 -52 -110 -93 -70 -69 -119 -145 -156
-240 -4 -8 -4 5 -2 29 3 25 24 83 47 130 33 69 59 103 128 172 149 149 309
207 542 196 103 -4 132 -10 240 -47 124 -42 229 -93 229 -111 0 -15 27 -10 34
7 9 23 0 32 -28 27 -26 -5 -61 18 -48 32 4 5 -3 5 -15 2 -25 -6 -29 3 -11 21
9 9 9 12 1 12 -7 0 -24 5 -40 12 -15 6 -39 13 -53 15 -14 2 -34 7 -45 12 -11
5 -29 12 -40 15 -11 3 -47 14 -80 26 -125 44 -373 36 -497 -16 -52 -22 -88
-24 -88 -5 0 15 14 20 26 10 9 -7 12 -6 10 7 -3 20 -26 32 -26 14 0 -8 -10
-10 -26 -7 -19 3 -27 0 -34 -17 -4 -11 -6 -24 -3 -28 2 -4 -2 -5 -9 -3 -8 3
-22 -1 -33 -9 -11 -9 -14 -16 -7 -16 6 0 12 -5 12 -12 0 -6 -9 -3 -20 7 -20
19 -20 19 10 31 32 14 38 20 18 21 -7 0 -21 4 -30 8 -11 4 -18 3 -18 -5 0 -6
5 -8 10 -5 6 3 10 1 10 -4 0 -6 -6 -11 -12 -12 -7 0 -29 -3 -48 -7 -19 -3 -54
-5 -77 -5 -24 0 -43 -3 -43 -8 0 -13 -78 -11 -82 2 -2 6 -24 15 -48 19 -35 6
-47 5 -53 -6 -4 -8 -19 -14 -32 -14 -16 0 -25 -6 -25 -15 0 -8 -4 -15 -10 -15
-5 0 -10 7 -10 15 0 8 -9 15 -20 15 -11 0 -20 -7 -20 -15 0 -8 -4 -15 -10 -15
-5 0 -10 4 -10 8 0 5 -12 13 -27 19 l-28 11 28 1 c15 1 27 6 27 11 0 6 19 11
43 11 31 1 21 4 -37 12 -60 7 -80 7 -86 -3 -6 -9 -12 -9 -28 1 -17 11 -25 11
-46 0 -20 -11 -28 -11 -40 -2 -8 7 -38 15 -67 18 -52 6 -65 12 -97 46 -9 9
-24 17 -34 17 -9 0 -19 4 -22 9 -3 4 -17 6 -31 3 -19 -3 -25 0 -25 12 0 10 -5
14 -11 10 -6 -3 -14 -1 -18 5 -4 6 -25 12 -47 12 -55 1 -80 9 -63 20 10 6 9 9
-6 14 -11 4 -27 10 -35 14 -9 5 -30 12 -47 15 -17 4 -43 21 -58 37 -14 17 -33
28 -40 25 -9 -3 -16 5 -20 25 -7 30 -20 38 -27 17 -6 -17 -38 14 -38 37 0 21
-27 30 -44 16 -9 -7 -17 -8 -20 -2 -3 5 -14 7 -24 4 -10 -2 -24 3 -31 11 -8 9
-20 16 -27 16 -8 0 -14 6 -14 14 0 7 -9 16 -21 19 -12 3 -18 10 -14 16 6 11
-8 20 -37 25 -7 1 -24 8 -38 16 -14 8 -47 22 -74 32 -49 18 -69 35 -60 50 3 4
-1 8 -9 8 -8 0 -20 7 -27 15 -7 8 -25 15 -40 15 -16 0 -30 7 -34 15 -3 8 -16
16 -28 16 l-23 2 23 4 c33 6 24 37 -11 41 -19 2 -35 15 -53 42 -15 23 -31 37
-39 34 -7 -3 -18 3 -24 15 -6 11 -21 22 -33 24 -17 3 -14 5 10 6 17 0 32 6 32
12 0 5 -8 9 -17 8 -38 -3 -46 0 -34 15 15 18 -6 66 -29 66 -25 0 -61 43 -71
87 -5 21 -8 79 -7 128 l2 90 50 12 51 12 -52 -3 c-29 -2 -53 1 -53 5 0 8 60
14 103 11 9 -1 17 5 17 13 0 8 8 16 18 16 9 1 28 3 42 6 14 2 123 5 242 6
l217 3 68 36 c577 309 845 411 1128 428 188 11 216 11 275 -4z m-4867 -258
c28 -14 46 -38 47 -60 0 -33 -32 -97 -52 -104 -32 -10 -85 5 -119 33 -25 22
-34 24 -49 15 -21 -13 -30 -6 -30 24 0 31 42 78 91 102 42 21 57 20 112 -10z
m35 -340 c9 -8 9 -14 1 -24 -8 -10 -38 -14 -103 -14 -96 0 -116 8 -116 43 0
19 5 19 103 12 56 -4 108 -12 115 -17z m1562 -23 c0 -4 -34 -37 -65 -64 -28
-23 -8 -24 27 -1 33 22 5 -7 -183 -185 -225 -213 -445 -505 -599 -790 -42 -79
-78 -132 -45 -67 20 41 13 76 -10 46 -12 -15 -12 -11 1 21 54 134 313 519 342
510 7 -3 10 0 7 5 -15 24 298 356 444 472 72 57 81 63 81 53z m-1606 -131 c31
-12 70 -148 45 -156 -7 -2 -12 -59 -15 -158 -4 -173 -12 -252 -24 -245 -5 3
-10 -1 -13 -7 -2 -7 -7 10 -11 37 -15 110 -18 125 -27 119 -5 -3 -9 -34 -9
-70 0 -35 -4 -73 -10 -84 -5 -11 -15 -30 -21 -42 -6 -12 -12 -80 -14 -152 -3
-149 -14 -256 -26 -256 -4 0 -10 -17 -12 -37 -3 -21 -3 16 -1 82 4 131 13 217
23 211 5 -3 1 157 -9 399 -3 75 -18 19 -19 -74 -1 -40 -7 -99 -15 -130 -21
-83 -30 -235 -16 -262 8 -14 8 -19 1 -15 -7 5 -11 -7 -12 -36 l-2 -43 -7 35
c-4 19 -8 29 -9 22 0 -7 -6 -10 -12 -6 -17 10 -4 255 21 394 6 36 11 93 10
126 -1 70 18 193 32 211 6 7 10 36 11 65 0 29 4 59 10 66 10 12 102 17 131 6z
m3366 -563 c0 -11 -26 -22 -34 -14 -12 12 -5 23 14 23 11 0 20 -4 20 -9z
m-2657 -406 c-3 -9 -8 -14 -10 -11 -3 3 -2 9 2 15 9 16 15 13 8 -4z m1582 -40
c182 -38 351 -169 433 -335 51 -103 55 -139 7 -54 -21 38 -66 91 -114 135
-191 180 -357 229 -658 196 -82 -9 -163 -17 -179 -17 l-29 0 29 15 c16 9 31
13 34 10 3 -3 -1 -5 -8 -5 -7 0 -11 -2 -8 -5 9 -10 38 7 31 18 -4 7 0 8 11 4
10 -4 37 2 62 14 26 11 54 17 65 14 11 -4 25 -2 32 4 26 21 202 25 292 6z
m2802 1 c3 -3 -2 -9 -11 -12 -10 -4 -24 0 -33 8 -13 14 -12 15 12 13 15 -2 29
-6 32 -9z m1714 -33 c-12 -20 -14 -14 -5 12 4 9 9 14 11 11 3 -2 0 -13 -6 -23z
m-1901 8 c0 -17 -18 -21 -24 -6 -3 9 0 15 9 15 8 0 15 -4 15 -9z m1740 -11 c0
-5 -4 -10 -10 -10 -5 0 -10 5 -10 10 0 6 5 10 10 10 6 0 10 -4 10 -10z m190
-33 c0 -5 -4 -5 -10 -2 -5 3 -10 14 -10 23 0 15 2 15 10 2 5 -8 10 -19 10 -23z
m-1885 -15 c-3 -3 -11 0 -18 7 -9 10 -8 11 6 5 10 -3 15 -9 12 -12z m392 2
c-3 -3 -12 -4 -19 -1 -8 3 -5 6 6 6 11 1 17 -2 13 -5z m-417 -14 c0 -5 -4 -10
-10 -10 -5 0 -10 5 -10 10 0 6 5 10 10 10 6 0 10 -4 10 -10z m734 -352 c107
-54 193 -178 183 -265 -8 -78 -78 -143 -136 -128 -14 4 -77 59 -140 124 -89
90 -131 125 -180 149 -35 18 -75 32 -88 32 -78 0 65 97 162 109 74 10 155 1
199 -21z m-3440 -18 c44 -18 93 -46 110 -61 l31 -28 -58 6 c-52 5 -64 2 -130
-30 -65 -32 -197 -145 -197 -169 0 -4 -23 -26 -51 -48 -75 -59 -111 -56 -172
18 -54 66 -23 176 74 267 77 72 117 86 224 82 75 -3 104 -9 169 -37z m-1697 8
c-3 -8 -6 -5 -6 6 -1 11 2 17 5 13 3 -3 4 -12 1 -19z m1312 -16 c-32 -21 -97
-89 -149 -157 -172 -225 -169 -507 6 -682 115 -115 294 -170 449 -138 43 9 79
14 81 12 3 -2 -32 -12 -75 -21 -59 -13 -133 -18 -278 -19 -248 -2 -278 6 -371
99 -89 89 -115 150 -114 268 0 50 6 115 11 144 12 61 65 187 105 250 24 38 29
42 44 30 15 -12 16 -11 3 5 -12 15 -11 20 5 39 43 50 89 84 181 134 93 51 159
74 102 36z m3997 -26 c147 -61 220 -128 308 -284 100 -178 118 -360 49 -501
-34 -71 -123 -156 -188 -180 -65 -24 -392 -37 -494 -20 -79 14 -206 61 -241
90 -21 17 -17 17 25 -5 106 -53 127 -59 252 -64 104 -4 132 -1 190 16 85 26
151 69 206 135 94 112 124 200 113 332 -14 193 -82 311 -266 468 -30 26 -50
47 -45 47 6 0 47 -15 91 -34z m347 -27 c26 -30 15 -34 -13 -4 -13 14 -19 25
-14 25 5 0 18 -9 27 -21z m132 -171 c6 -5 4 -8 -5 -8 -8 0 -25 16 -37 35 -31
47 -29 54 4 13 15 -18 32 -36 38 -40z m-2225 -22 c158 -37 227 -62 314 -113
95 -54 180 -117 167 -121 -5 -2 -56 22 -112 53 -385 209 -918 219 -1322 26
-45 -22 -83 -38 -84 -37 -6 6 116 90 167 116 64 32 162 62 275 84 122 23 138
24 320 21 137 -3 190 -9 275 -29z m-1691 -7 c51 -18 55 -73 7 -104 -57 -37
-117 45 -70 96 20 22 21 22 63 8z m2863 -6 c38 -34 7 -103 -47 -103 -29 0 -65
32 -65 57 0 26 40 63 68 63 14 0 34 -7 44 -17z m1193 -143 c-8 -13 -35 -13
-55 0 -11 7 -5 10 23 10 23 0 36 -4 32 -10z m-2517 -145 c12 2 27 7 32 10 6 4
17 2 25 -5 9 -8 15 -8 20 0 7 12 93 11 101 -1 2 -4 16 -5 32 -3 44 8 94 4 163
-12 19 -4 41 -8 49 -9 8 -1 32 -10 52 -19 21 -9 42 -16 47 -16 5 0 27 -17 49
-37 62 -59 51 -86 -53 -137 -420 -206 -547 -241 -733 -201 -93 19 -265 85
-387 148 -114 59 -127 79 -73 112 38 23 168 75 168 68 0 -3 6 -1 13 5 6 5 26
12 42 14 17 1 36 9 43 16 7 6 28 12 46 12 17 0 37 5 44 12 11 11 55 19 112 22
14 1 27 4 30 7 3 4 34 10 70 13 35 4 66 9 69 12 2 2 7 0 11 -6 3 -5 16 -8 28
-5z m-2218 -101 c0 -7 3 -19 6 -28 9 -23 -19 -20 -41 4 -16 17 -16 24 -6 47
12 27 13 27 27 8 8 -10 14 -24 14 -31z m4245 15 c20 -38 13 -59 -20 -59 -19 0
-25 5 -25 23 0 12 -3 32 -6 45 -10 36 32 29 51 -9z m-93 -66 c32 -37 26 -83
-12 -83 -33 0 -66 71 -43 93 12 13 40 7 55 -10z m-4103 -35 c36 -38 38 -48 12
-48 -22 0 -51 35 -51 62 0 25 4 23 39 -14z m119 4 c4 -28 -24 -40 -45 -19 -21
21 -9 49 19 45 15 -2 24 -11 26 -26z m508 1 c-9 -27 -45 -65 -57 -58 -14 10
-11 18 22 54 31 35 45 36 35 4z m2888 -12 c10 -16 -5 -41 -24 -41 -16 0 -30
18 -30 41 0 12 47 12 54 0z m-484 -60 c0 -4 -30 -11 -67 -14 -38 -4 -79 -9
-93 -12 l-25 -6 25 12 c52 22 160 37 160 20z m98 -8 c-10 -2 -26 -2 -35 0 -10
3 -2 5 17 5 19 0 27 -2 18 -5z m95 -29 c36 -18 117 -93 117 -108 0 -6 -21 11
-47 36 -27 25 -64 56 -83 67 -41 25 -33 28 13 5z m247 -61 c0 -8 -36 16 -55
38 -16 19 -13 18 18 -5 20 -16 37 -30 37 -33z m1432 -90 c23 -21 23 -40 -2
-53 -27 -15 -60 4 -60 34 0 40 29 49 62 19z m-3847 -23 c27 -12 63 -45 114
-106 132 -157 300 -293 456 -369 138 -67 195 -80 370 -80 171 0 225 12 370 78
153 69 245 137 430 318 195 190 203 195 341 186 89 -5 102 -10 233 -95 50 -33
130 -74 178 -92 269 -102 341 -141 462 -256 40 -37 95 -97 123 -133 125 -161
209 -223 363 -271 200 -63 228 -77 280 -146 90 -117 94 -375 10 -527 -52 -93
-227 -275 -393 -408 -79 -64 -78 -64 -142 -13 -8 6 -100 55 -205 109 -104 53
-228 124 -275 158 -117 83 -150 97 -239 97 -77 0 -139 -22 -201 -73 -92 -75
-371 -321 -401 -353 -142 -153 -231 -324 -274 -527 -19 -88 -19 -264 0 -363 8
-43 14 -78 12 -79 -1 -1 -40 -9 -87 -18 -229 -44 -626 -60 -919 -36 -136 11
-239 26 -190 28 14 1 28 4 32 7 10 10 -4 34 -22 35 -12 0 -12 2 4 9 l20 9 -20
1 c-20 1 -20 2 -1 9 19 7 19 8 -2 13 -12 4 -22 13 -22 22 0 9 -18 41 -40 70
-21 30 -42 66 -46 81 -4 15 -13 29 -20 32 -8 3 -14 18 -14 34 0 28 -17 36 -32
15 -3 -5 -10 24 -15 65 l-8 74 -5 -80 -5 -80 -8 50 c-52 340 -160 521 -467
778 -52 43 -115 98 -140 121 -134 124 -199 159 -300 159 -76 1 -137 -25 -235
-97 -59 -44 -82 -56 -70 -36 3 6 -1 7 -10 3 -12 -4 -13 -8 -5 -13 16 -10 25
-5 -235 -137 l-219 -112 -51 44 c-77 65 -269 263 -313 321 -21 28 -46 68 -56
88 -43 90 -46 283 -6 386 30 80 90 161 141 192 24 15 87 39 139 52 126 34 251
97 318 160 30 28 83 87 117 132 140 179 265 266 525 364 146 55 215 88 258
124 16 15 33 26 38 26 4 0 29 14 56 31 77 50 213 58 303 19z m3300 0 c-3 -5
-12 -10 -18 -10 -7 0 -6 4 3 10 19 12 23 12 15 0z m-5777 -103 c-15 -12 -37
-30 -50 -39 -12 -10 -18 -18 -14 -18 5 0 3 -7 -4 -15 -7 -8 -16 -12 -21 -9 -5
3 -9 -2 -9 -11 0 -8 -22 -43 -48 -78 -27 -34 -66 -90 -87 -125 l-38 -62 -13
26 c-13 24 -11 31 24 87 47 78 153 191 208 223 23 14 48 32 55 40 6 8 14 12
17 9 4 -3 -6 -16 -20 -28z m6903 5 c99 -67 201 -193 243 -300 19 -51 21 -138
3 -181 -13 -30 -13 -29 -35 67 -26 113 -72 196 -183 329 -82 97 -92 129 -28
85z m-731 -62 c62 -32 93 -83 110 -182 9 -50 9 -71 0 -88 -12 -22 -12 -22 -30
-3 -21 23 -43 70 -66 138 -36 109 -90 128 -167 57 -35 -34 -56 -19 -38 26 33
79 102 98 191 52z m-5384 5 c48 -20 35 -35 -24 -28 -38 4 -58 0 -100 -20 -28
-14 -52 -22 -52 -19 2 27 81 82 118 82 12 0 39 -7 58 -15z m5124 -184 c18 -35
13 -53 -16 -49 -31 3 -50 28 -41 52 9 22 44 20 57 -3z m-5723 -243 c-3 -8 -6
-5 -6 6 -1 11 2 17 5 13 3 -3 4 -12 1 -19z m20 -100 c-3 -7 -5 -2 -5 12 0 14
2 19 5 13 2 -7 2 -19 0 -25z m4954 -1048 c38 -28 147 -88 242 -135 244 -119
365 -213 426 -334 45 -87 82 -294 57 -318 -5 -4 -11 -2 -14 6 -3 10 -6 10 -12
1 -5 -7 -13 19 -20 61 -20 127 -51 202 -121 297 -51 67 -136 135 -158 126
-147 -62 -229 -81 -288 -65 -48 13 -91 57 -89 91 2 34 16 73 30 82 8 6 7 8 -1
8 -7 0 -13 5 -13 10 0 6 6 10 13 9 47 -6 48 10 3 42 -62 45 -137 112 -147 133
-8 17 -6 16 12 -4 21 -24 22 -21 3 25 -10 24 4 18 77 -35z m-3580 -20 c-28
-26 -41 -45 -37 -55 4 -10 -2 -19 -18 -25 -36 -13 -40 -29 -15 -56 l22 -24
-53 0 c-51 0 -55 -2 -96 -47 l-43 -47 -93 0 c-88 -1 -96 -3 -138 -32 -80 -56
-141 -116 -186 -183 -44 -66 -61 -79 -24 -19 11 18 20 38 20 43 -1 6 -8 -2
-16 -17 -8 -16 -19 -28 -24 -28 -6 0 -10 -7 -10 -15 0 -8 -4 -15 -10 -15 -16
0 -12 11 24 72 48 78 78 110 160 167 77 53 254 148 327 175 25 10 90 46 145
81 54 35 101 64 104 64 3 1 -15 -17 -39 -39z m-11 -50 c0 -5 -2 -10 -4 -10 -3
0 -8 5 -11 10 -3 6 -1 10 4 10 6 0 11 -4 11 -10z m1107 -1047 c-3 -10 -5 -2
-5 17 0 19 2 27 5 18 2 -10 2 -26 0 -35z m3 -89 c0 -2 -7 -4 -15 -4 -8 0 -15
4 -15 10 0 5 7 7 15 4 8 -4 15 -8 15 -10z m130 -20 c0 -3 -13 -3 -29 -2 -16 1
-28 5 -26 9 5 6 55 0 55 -7z"/>
<path d="M4218 6763 c7 -3 16 -2 19 1 4 3 -2 6 -13 5 -11 0 -14 -3 -6 -6z"/>
<path d="M7330 5482 c0 -14 6 -22 16 -22 14 0 15 3 3 18 -7 9 -15 19 -16 21
-2 2 -3 -5 -3 -17z"/>
<path d="M7070 5456 c0 -2 15 -6 34 -8 19 -2 32 0 30 4 -5 8 -64 12 -64 4z"/>
<path d="M2305 5959 c-4 -6 -5 -12 -2 -15 2 -3 7 2 10 11 7 17 1 20 -8 4z"/>
<path d="M2164 5722 c-7 -4 -12 -20 -12 -36 0 -17 3 -23 8 -15 5 6 6 19 2 27
-3 9 -1 13 5 9 5 -3 10 0 10 8 0 8 -1 15 -1 15 -1 0 -6 -4 -12 -8z"/>
<path d="M2120 5655 c0 -8 7 -15 16 -15 14 0 14 3 4 15 -7 8 -14 15 -16 15 -2
0 -4 -7 -4 -15z"/>
<path d="M2975 4933 c-47 -49 -61 -76 -24 -45 51 42 73 66 75 79 3 21 -4 16
-51 -34z"/>
<path d="M3123 2365 c-3 -9 -3 -18 -1 -21 3 -3 8 4 11 16 6 23 -1 27 -10 5z"/>
<path d="M3051 2326 c-10 -12 -8 -14 14 -11 27 2 60 25 38 25 -7 0 -15 -5 -19
-11 -5 -8 -8 -8 -14 0 -5 9 -10 8 -19 -3z"/>
<path d="M2903 2253 c4 -3 5 -9 1 -14 -7 -12 7 -11 26 1 9 6 10 10 3 10 -6 0
-17 2 -25 3 -7 2 -10 2 -5 0z"/>
<path d="M5713 1243 c-7 -3 -13 -15 -13 -27 0 -12 -6 -28 -12 -34 -10 -10 -10
-15 2 -22 13 -9 13 -11 0 -21 -13 -9 -12 -10 3 -5 10 3 28 6 40 7 21 0 21 1 2
9 -19 8 -19 9 3 9 21 1 33 21 12 21 -5 0 -10 13 -10 29 0 32 -7 41 -27 34z"/>
<path d="M5715 1120 c-7 -12 12 -12 40 0 18 8 17 9 -7 9 -15 1 -30 -3 -33 -9z"/>
<path d="M1436 3651 c-4 -5 -2 -12 3 -15 5 -4 12 -2 15 3 4 5 2 12 -3 15 -5 4
-12 2 -15 -3z"/>
<path d="M1587 7193 c-16 -15 -4 -39 42 -88 98 -103 125 -205 99 -374 -15 -97
-15 -107 3 -181 34 -146 87 -424 99 -525 7 -55 16 -104 20 -108 4 -5 34 32 66
82 54 84 143 213 251 362 23 33 74 96 112 140 43 51 67 88 64 98 -3 11 -2 12
4 4 6 -8 44 23 123 98 63 61 157 142 208 181 50 39 92 77 92 84 0 18 3 17
-435 99 -165 31 -394 74 -508 96 -222 42 -230 43 -240 32z m668 -363 c8 -7 19
-9 25 -5 6 4 17 2 24 -4 8 -7 37 -14 65 -18 44 -5 51 -9 51 -27 0 -12 5 -27
12 -34 8 -8 8 -15 -1 -26 -9 -11 -9 -15 1 -20 7 -3 4 -4 -8 -1 -16 4 -20 1
-20 -17 1 -16 -4 -22 -15 -20 -11 1 -16 -4 -15 -15 0 -11 -5 -17 -14 -16 -9 2
-24 -12 -34 -32 -11 -20 -26 -41 -35 -48 -12 -10 -13 -9 -7 3 5 8 -5 -1 -22
-20 -17 -19 -31 -39 -32 -44 0 -4 -19 -28 -42 -51 -46 -46 -91 -100 -96 -115
-2 -6 -12 -10 -23 -10 -10 0 -19 -5 -19 -11 0 -6 -6 -9 -12 -6 -7 2 -12 10
-10 17 2 7 -1 16 -6 19 -5 3 -19 32 -31 64 -31 84 -35 322 -7 385 15 34 25 43
52 48 18 3 37 3 43 0 5 -4 12 -3 14 2 9 13 147 14 162 2z m215 -90 c0 -5 -5
-10 -11 -10 -5 0 -7 5 -4 10 3 6 8 10 11 10 2 0 4 -4 4 -10z m-207 -234 c-10
-13 -20 -22 -22 -20 -4 4 29 44 36 44 2 0 -4 -11 -14 -24z"/>
<path d="M2403 6728 c-1 -11 1 -16 5 -12 4 5 11 12 15 15 5 3 2 9 -5 12 -9 3
-14 -3 -15 -15z"/>
<path d="M8240 7860 c0 -6 7 -10 15 -10 8 0 15 2 15 4 0 2 -7 6 -15 10 -8 3
-15 1 -15 -4z"/>
<path d="M8690 7225 c12 -15 30 -12 30 6 0 5 -10 9 -21 9 -18 0 -19 -2 -9 -15z"/>
<path d="M7409 7133 c-13 -16 -12 -17 4 -4 9 7 17 15 17 17 0 8 -8 3 -21 -13z"/>
<path d="M7575 7000 c3 -5 8 -10 11 -10 2 0 4 5 4 10 0 6 -5 10 -11 10 -5 0
-7 -4 -4 -10z"/>
<path d="M7640 6950 c0 -5 5 -10 11 -10 5 0 7 5 4 10 -3 6 -8 10 -11 10 -2 0
-4 -4 -4 -10z"/>
<path d="M9010 6165 c0 -8 7 -15 15 -15 8 0 15 7 15 15 0 8 -7 15 -15 15 -8 0
-15 -7 -15 -15z"/>
<path d="M9068 6123 c7 -3 16 -2 19 1 4 3 -2 6 -13 5 -11 0 -14 -3 -6 -6z"/>
<path d="M8561 6054 c0 -11 3 -14 6 -6 3 7 2 16 -1 19 -3 4 -6 -2 -5 -13z"/>
<path d="M9272 5520 c0 -14 2 -19 5 -12 2 6 2 18 0 25 -3 6 -5 1 -5 -13z"/>
<path d="M9155 5150 c3 -5 10 -10 16 -10 5 0 9 5 9 10 0 6 -7 10 -16 10 -8 0
-12 -4 -9 -10z"/>
<path d="M9178 5053 c7 -3 16 -2 19 1 4 3 -2 6 -13 5 -11 0 -14 -3 -6 -6z"/>
<path d="M613 5120 c0 -25 2 -35 4 -22 2 12 2 32 0 45 -2 12 -4 2 -4 -23z"/>
<path d="M532 5029 c2 -7 10 -15 17 -17 8 -3 12 1 9 9 -2 7 -10 15 -17 17 -8
3 -12 -1 -9 -9z"/>
<path d="M480 4720 c0 -6 7 -10 15 -10 8 0 15 2 15 4 0 2 -7 6 -15 10 -8 3
-15 1 -15 -4z"/>
<path d="M1121 3924 c0 -11 3 -14 6 -6 3 7 2 16 -1 19 -3 4 -6 -2 -5 -13z"/>
<path d="M1041 3824 c0 -11 3 -14 6 -6 3 7 2 16 -1 19 -3 4 -6 -2 -5 -13z"/>
</g>
</svg>
